<svg xmlns="http://www.w3.org/2000/svg" viewBox="0 0 540 260" role="img" aria-labelledby="title desc">
  <title id="title">Sonver Logo</title>
  <desc id="desc">Blue car silhouette with a dark gear and the word Sonver</desc>
  <rect width="540" height="260" fill="#f2f4f7" rx="18"/>
  <path d="M96 156c0-28 20-52 48-56l108-16c32-4 73 7 96 27l22 20c8 7 12 17 12 28 0 17-15 30-32 30H124c-15 0-28-13-28-29z" fill="#1d70b7"/>
  <path d="M132 170h36a12 12 0 0 1 0 24h-10a24 24 0 0 1-26-24zm172 0h36a12 12 0 0 1 0 24h-10a24 24 0 0 1-26-24z" fill="#0f3f68" opacity=".95"/>
  <circle cx="188" cy="186" r="20" fill="#0f3f68"/>
  <circle cx="332" cy="186" r="20" fill="#0f3f68"/>
  <path d="M174 144h80c8 0 14-6 14-14s-6-14-14-14h-52c-8 0-18 5-23 11l-9 10c-6 7-2 17 4 17z" fill="#edf3fa"/>
  <path d="M360 84c-14 0-26 6-34 16l-12 14 21 20 25-12 42 6c10 1 18-6 18-16 0-24-26-48-60-48z" fill="#5b87b3"/>
  <g transform="translate(360 110)">
    <circle cx="52" cy="52" r="52" fill="#1f2933"/>
    <circle cx="52" cy="52" r="24" fill="#f7fafc"/>
    <path d="M52 8v16M52 80v16M8 52h16M80 52h16M18 18l12 12M74 74l12 12M86 18L74 30M30 74L18 86" stroke="#f7fafc" stroke-width="8" stroke-linecap="round"/>
  </g>
  <text x="30" y="240" font-family="'Segoe UI', Arial, sans-serif" font-weight="900" font-size="64" fill="#1f2933">SONVER</text>
</svg>
